# xmcd
#
# Track frame offsets:
#	150
#	27220
#	42375
#	58295
#	77290
#	95385
#	111920
#	130125
#	144245
#	163720
#	189535
#	223425
#	246910
#	266335
#	276735
#	324425
#	343795
#
# Disc length: 4774 seconds
#
# Revision: 0
# Processed by: cddbd v1.5.2PL0 Copyright (c) Steve Scherf et al.
# Submitted via: EasyCDDAExtractor 10.0.2.1
#
DISCID=0312a411
DTITLE=Alice Cooper - UIC Pavillion Chicago IL 12-02-87
DYEAR=1987
DGENRE=Hard Rock
TTITLE0=Welcome To My Nightmare
TTITLE1=Billion Dollar Babies
TTITLE2=No More Mr Nice Guy
TTITLE3=Be My Lover
TTITLE4=Eighteen
TTITLE5=The World Needs Guts
TTITLE6=Give It Up
TTITLE7=Cold Ethyl
TTITLE8=Only Women Bleed
TTITLE9=Go To Hell
TTITLE10=Ballad Of Dwight Fry
TTITLE11=Teenage Frankenstein
TTITLE12=Sick Things
TTITLE13=I Love The Dead
TTITLE14=School's Out
TTITLE15=Elected
TTITLE16=Under My Wheels
EXTD=
EXTT0=
EXTT1=
EXTT2=
EXTT3=
EXTT4=
EXTT5=
EXTT6=
EXTT7=
EXTT8=
EXTT9=
EXTT10=
EXTT11=
EXTT12=
EXTT13=
EXTT14=
EXTT15=
EXTT16=
PLAYORDER=
